<?xml version="1.0" encoding="utf-8"?>
<!-- Generator: Adobe Illustrator 26.3.1, SVG Export Plug-In . SVG Version: 6.00 Build 0)  -->
<svg version="1.1" id="Layer_1" xmlns="http://www.w3.org/2000/svg" xmlns:xlink="http://www.w3.org/1999/xlink" x="0px" y="0px"
	 viewBox="0 0 461 461" style="enable-background:new 0 0 461 461;" xml:space="preserve">
<style type="text/css">
	.st0{fill:#C8A96A;}
</style>
<g>
	<g>
		<path class="st0" d="M432.9,413.3h-390c-3.9,0-7,3.2-7,7s3.2,7,7,7h4.5c7.1,16.1,25,28.2,42.5,28.2h296
			c17.5,0,35.4-12.1,42.5-28.2h4.5c3.9,0,7-3.2,7-7S436.8,413.3,432.9,413.3z M385.9,441.5h-296c-9.6,0-20.1-5.9-26.2-14.1h348.5
			C406,435.5,395.6,441.5,385.9,441.5z"/>
	</g>
</g>
<g>
	<g>
		<path class="st0" d="M136.9,292.9l-7-84.6c-0.3-3.7-3.4-6.5-7-6.5h-9.4c-27.2,0-49.3,22.1-49.3,49.3s22.1,49.3,49.3,49.3h16.4
			c2,0,3.9-0.8,5.2-2.3C136.3,296.8,137,294.8,136.9,292.9z M113.4,286.4c-19.4,0-35.2-15.8-35.2-35.2s15.8-35.2,35.2-35.2h2.9
			l5.9,70.5H113.4z"/>
	</g>
</g>
<g>
	<g>
		<path class="st0" d="M362.9,147.7c-1.3-1.5-3.2-2.3-5.2-2.3H118.1c-2,0-3.9,0.8-5.2,2.3c-1.3,1.5-2,3.4-1.8,5.4l1.7,20.6
			c-42.5,0.3-76.9,35-76.9,77.5c0,42.8,34.8,77.5,77.5,77.5h12.3l0.7,7.8c2.9,34.5,33.4,62.7,68.1,62.7h86.9
			c34.7,0,65.2-28.1,68.1-62.7l15.3-183.5C364.9,151.1,364.3,149.1,362.9,147.7z M335.4,335.3c-2.3,27.4-26.5,49.7-54,49.7h-86.9
			c-27.5,0-51.8-22.3-54-49.7l-1.2-14.3c-0.3-3.7-3.4-6.5-7-6.5h-18.8c-35,0-63.4-28.5-63.4-63.4s28.5-63.4,63.4-63.4h7
			c2,0,3.9-0.8,5.2-2.3c1.3-1.5,2-3.4,1.8-5.4l-1.7-20.6h224.3L335.4,335.3z"/>
	</g>
</g>
<g>
	<g>
		<path class="st0" d="M214.4,98.4c0-11.1,2.9-16.4,6.2-22.5c3.7-6.8,7.9-14.5,7.9-29.2c0-14.7-4.2-22.4-7.9-29.2
			c-1.2-2.2-3.5-3.7-6.2-3.7c-3.9,0-7,3.2-7,7c0,1.2,0.3,2.4,0.9,3.4c3.3,6.1,6.2,11.3,6.2,22.5c0,11.1-2.9,16.4-6.2,22.5
			c-3.7,6.8-7.9,14.5-7.9,29.2s4.2,22.4,7.9,29.2c1.3,2.3,3.7,3.7,6.2,3.7c1.1,0,2.3-0.3,3.4-0.9c3.4-1.9,4.7-6.1,2.8-9.6
			C217.3,114.8,214.4,109.6,214.4,98.4z"/>
	</g>
</g>
<g>
	<g>
		<path class="st0" d="M261.4,98.4c0-11.1,2.9-16.4,6.2-22.5c3.7-6.8,7.9-14.5,7.9-29.2c0-14.7-4.2-22.4-7.9-29.2
			c-1.2-2.2-3.5-3.7-6.2-3.7c-3.9,0-7,3.2-7,7c0,1.2,0.3,2.4,0.9,3.4c3.3,6.1,6.2,11.3,6.2,22.5c0,11.1-2.9,16.4-6.2,22.5
			c-3.7,6.8-7.9,14.5-7.9,29.2s4.2,22.4,7.9,29.2c1.3,2.3,3.7,3.7,6.2,3.7c1.1,0,2.3-0.3,3.4-0.9c3.4-1.9,4.7-6.1,2.8-9.6
			C264.3,114.8,261.4,109.6,261.4,98.4z"/>
	</g>
</g>
</svg>
