<?xml version="1.0" encoding="utf-8"?>
<!-- Generator: Adobe Illustrator 26.3.1, SVG Export Plug-In . SVG Version: 6.00 Build 0)  -->
<svg version="1.1" id="Layer_1" xmlns="http://www.w3.org/2000/svg" xmlns:xlink="http://www.w3.org/1999/xlink" x="0px" y="0px"
	 viewBox="0 0 461 461" style="enable-background:new 0 0 461 461;" xml:space="preserve">
<style type="text/css">
	.st0{fill:#C8A96A;}
</style>
<g>
	<g>
		<path class="st0" d="M367.6,303.8l-42.4-42.4c-9.7-9.7-25.6-9.7-35.4,0l-5.6,5.6c-4.3,4.3-10.1,6.7-16.2,6.7
			c-6.1,0-11.9-2.4-16.2-6.7l-52.4-52.4c-4.3-4.3-6.7-10.1-6.7-16.2c0-6.1,2.4-11.9,6.7-16.2l5.6-5.6c9.7-9.7,9.7-25.6,0-35.4
			l-42.4-42.4c-9.7-9.7-25.6-9.7-35.4,0c-35.8,35.8-41,92.2-12.4,134c32.1,46.8,72,86.7,118.8,118.8c18.1,12.4,38.8,18.5,59.5,18.5
			c27.2,0,54.1-10.5,74.5-30.8c4.7-4.7,7.3-11,7.3-17.7C374.9,314.8,372.3,308.5,367.6,303.8z M139.9,111.5c1.3-1.3,3.1-2,4.9-2
			s3.6,0.7,4.9,2.1l42.4,42.4c1.3,1.3,2.1,3.1,2.1,4.9c0,1.9-0.7,3.6-2.1,4.9l-2.5,2.5l-52.3-52.3
			C138.2,113.2,139,112.3,139.9,111.5z M243.8,336.7c-44.9-30.8-83.3-69.2-114.1-114.1c-19.6-28.5-20.1-65.2-3.1-93.9l52,52
			c-2.6,5.4-4,11.4-4,17.6c0,10.9,4.3,21.2,12,28.9l52.4,52.4c7.7,7.7,18,12,28.9,12c6.2,0,12.2-1.4,17.6-4l52,52
			C309,356.8,272.3,356.3,243.8,336.7z M354.8,326.4c-0.8,0.8-1.7,1.7-2.6,2.5L300,276.6l2.5-2.5c1.3-1.3,3.1-2.1,4.9-2.1
			s3.6,0.7,5,2.1l42.4,42.4C357.6,319.3,357.6,323.7,354.8,326.4z"/>
	</g>
</g>
</svg>
