<?xml version="1.0" encoding="utf-8"?>
<!-- Generator: Adobe Illustrator 26.3.1, SVG Export Plug-In . SVG Version: 6.00 Build 0)  -->
<svg version="1.1" id="Layer_1" xmlns="http://www.w3.org/2000/svg" xmlns:xlink="http://www.w3.org/1999/xlink" x="0px" y="0px"
	 viewBox="0 0 461 461" style="enable-background:new 0 0 461 461;" xml:space="preserve">
<style type="text/css">
	.st0{fill:#C8A96A;}
</style>
<path class="st0" d="M342.9,228.7c-1.9-1.9-4.2-3.2-7-3.2h-94.6l-38-134l102-30.1c1.9-0.5,3.2-2.8,3.2-4.6s-1.9-3.7-3.7-4.2
	L185.7,30.2l-5.1-19c-0.9-2.3-3.2-3.7-5.6-3.2c-2.3,0.9-3.7,3.2-3.2,5.6l5.6,19l-91.8,84.9c-1.9,1.4-2.3,4.2-0.9,6
	c0.9,1.4,2.3,2.3,4.2,2.3h1.4l104.3-31.5l37.1,131.2h-67.2c-2.8,0-5.1,0.9-7,3.2s-2.8,4.6-2.3,7.4l23.2,208.7
	c0.5,4.6,4.6,8.3,9.3,8.3h125.2c4.6,0,8.8-3.7,9.3-8.3l23.2-208.7C345.7,233.3,344.8,230.5,342.9,228.7z M200.6,82.6l-10.7-38.5
	l46.4,27.8C236.3,71.9,200.6,82.6,200.6,82.6z M248.3,68.2l-41.7-25l77.4,14.4L248.3,68.2z M165.8,55.7L144,98.4
	c-0.5,0.5-0.5,0.9-0.5,1.4l-37.1,11.1C106.4,110.9,165.8,55.7,165.8,55.7z M155.6,96.1l25.5-49.2l11.1,38.5
	C192.2,85.4,155.6,96.1,155.6,96.1z M325.8,244l-3.7,33.4c-3.2-2.3-7-5.6-13.9-5.6c-7.4,0-11.1,3.2-14.4,5.6
	c-2.8,2.3-4.6,3.7-8.8,3.7c-4.2,0-6-1.4-8.8-3.7c-3.2-2.3-7-5.6-14.4-5.6c-2.8,0-5.1,0.5-7,0.9l-8.3-28.8H325.8z M237.2,244
	l9.7,33.9c-2.3,1.9-4.2,3.2-7.9,3.2c-4.2,0-6-1.4-8.8-3.7c-3.2-2.3-7-5.6-14.4-5.6s-11.1,3.2-14.4,5.6c-2.8,2.3-4.6,3.7-8.8,3.7
	s-6-1.4-8.8-3.7c-1.9-1.4-3.7-2.8-6-3.7l-3.2-29.7C174.6,244,237.2,244,237.2,244z M179.2,285.7c2.8,2.3,7,4.6,13.4,4.6
	c7.4,0,11.1-3.2,14.4-5.6c2.8-2.3,4.6-3.7,8.8-3.7c4.2,0,6,1.4,8.8,3.7c3.2,2.3,7,5.6,14.4,5.6c4.6,0,7.9-1.4,10.7-2.8l29.7,104.8
	l-20.4-9.3l-19-8.8c-2.3-0.9-5.1,0-6,2.3l-20.4,44.5c-0.9,2.3,0,5.1,2.3,6l14.8,7h-34.8C195.9,434.1,179.2,285.7,179.2,285.7z
	 M253,434.1l-29.2-13.4l16.2-36.2l14.8,6.5l21.3,9.7l-14.8,33.4C261.3,434.1,253,434.1,253,434.1z M283.6,407.7l7.4,26.4h-19.5
	C271.5,434.1,283.6,407.7,283.6,407.7z M304.5,434.1h-3.7v-0.9l-43.1-151.6c1.4-0.5,2.3-0.9,4.2-0.9c4.2,0,6,1.4,8.8,3.7
	c3.2,2.3,7,5.6,14.4,5.6s11.1-3.2,14.4-5.6c2.8-2.3,4.6-3.7,8.8-3.7c4.2,0,6,1.4,8.8,3.7c1.4,0.9,2.8,2.3,4.2,3.2
	C321.2,287.6,304.5,434.1,304.5,434.1z"/>
<path class="st0" d="M284.1,315.4c-1.4,1.4-1.9,3.2-1.9,5.1c0,1.9,0.9,3.7,1.9,5.1c1.4,1.4,3.2,1.9,5.1,1.9c1.9,0,3.7-0.9,5.1-1.9
	c1.4-1.4,1.9-3.2,1.9-5.1c0-1.9-0.9-3.7-1.9-5.1C291.5,313.1,286.8,313.1,284.1,315.4z M208.9,309.4c0,0.5,0.5,0.9,0.5,1.4
	c0.5,0.5,0.5,0.9,0.9,0.9c1.4,1.4,3.2,1.9,5.1,1.9h1.4c0.5,0,0.9,0,1.4-0.5c0.5,0,0.9-0.5,1.4-0.5c0.5-0.5,0.9-0.5,0.9-0.9
	c1.4-1.4,1.9-3.2,1.9-5.1v-1.4c0-0.5,0-0.9-0.5-1.4c0-0.5-0.5-0.9-0.5-1.4c-0.5-0.5-0.5-0.9-0.9-0.9c-0.5-0.5-0.9-0.5-0.9-0.9
	c-0.5-0.5-0.9-0.5-1.4-0.5c-0.5,0-0.9-0.5-1.4-0.5H214c-0.5,0-0.9,0-1.4,0.5c-0.5,0-0.9,0.5-1.4,0.5c-0.5,0.5-0.9,0.5-0.9,0.9
	l-0.9,0.9c-0.5,0.5-0.5,0.9-0.5,1.4c0,0.5-0.5,0.9-0.5,1.4v2.8C208.5,308.5,208.9,308.9,208.9,309.4z M230.3,345.1
	c0.5,0,0.9,0.5,1.4,0.5c0.5,0,0.9,0.5,1.4,0.5h2.8c0.5,0,0.9,0,1.4-0.5c0.5,0,0.9-0.5,1.4-0.5c0.5-0.5,0.9-0.5,0.9-0.9
	c1.4-1.4,1.9-3.2,1.9-5.1c0-1.9-0.9-3.7-1.9-5.1c-0.5-0.5-0.9-0.5-0.9-0.9c-0.5-0.5-0.9-0.5-1.4-0.5c-0.5,0-0.9-0.5-1.4-0.5H233
	c-0.5,0-0.9,0-1.4,0.5c-0.5,0-0.9,0.5-1.4,0.5c-0.5,0.5-0.9,0.5-0.9,0.9l-0.9,0.9c-0.5,0.5-0.5,0.9-0.5,1.4c0,0.5-0.5,0.9-0.5,1.4
	v1.4c0,1.9,0.9,3.7,1.9,5.1C229.3,344.2,230.3,345.1,230.3,345.1z M214.5,372.9c0.5-0.5,0.9-0.5,0.9-0.9l0.9-0.9
	c0-0.5,0.5-0.9,0.5-1.4c0-0.5,0.5-0.9,0.5-1.4v-1.4v-1.4c0-0.5,0-0.9-0.5-1.4c0-0.5-0.5-0.9-0.5-1.4c-0.5-0.5-0.5-0.9-0.9-0.9
	c-0.5-0.5-0.9-0.5-0.9-0.9c-0.5-0.5-0.9-0.5-1.4-0.5s-0.9-0.5-1.4-0.5c-2.3-0.5-4.6,0.5-6.5,1.9l-0.9,0.9c-0.5,0.5-0.5,0.9-0.5,1.4
	c0,0.5-0.5,0.9-0.5,1.4v2.8c0,0.5,0,0.9,0.5,1.4c0,0.5,0.5,0.9,0.5,1.4c0.5,0.5,0.5,0.9,0.9,0.9l0.9,0.9c0.5,0,0.9,0.5,1.4,0.5
	s0.9,0.5,1.4,0.5h2.8c0.5,0,0.9,0,1.4-0.5C214,372.9,214,372.9,214.5,372.9z"/>
</svg>
