<?xml version="1.0" encoding="utf-8"?>
<!-- Generator: Adobe Illustrator 26.3.1, SVG Export Plug-In . SVG Version: 6.00 Build 0)  -->
<svg version="1.1" id="Layer_1" xmlns="http://www.w3.org/2000/svg" xmlns:xlink="http://www.w3.org/1999/xlink" x="0px" y="0px"
	 viewBox="0 0 461 461" style="enable-background:new 0 0 461 461;" xml:space="preserve">
<style type="text/css">
	.st0{fill:#222627;}
	.st1{fill:#9A9CA5;}
</style>
<circle class="st0" cx="230.5" cy="224" r="218"/>
<path class="st1" d="M336.6,160.5c-3.5,1.5-7.1,2.9-10.8,3.9c4.3-4.9,7.7-10.7,9.7-17c0.5-1.4,0-3-1.2-3.9c-1.2-0.9-2.8-1-4.1-0.3
	c-7.8,4.6-16.2,7.9-25,9.9c-8.9-8.7-20.9-13.6-33.4-13.6c-26.3,0-47.7,21.4-47.7,47.7c0,2.1,0.1,4.1,0.4,6.2
	c-32.7-2.9-63-18.9-83.9-44.5c-0.7-0.9-1.9-1.4-3.1-1.3c-1.2,0.1-2.2,0.8-2.8,1.8c-4.2,7.3-6.5,15.6-6.5,24
	c0,11.5,4.1,22.4,11.4,30.9c-2.2-0.8-4.3-1.7-6.4-2.9c-1.1-0.6-2.4-0.6-3.5,0c-1.1,0.6-1.8,1.8-1.8,3c0,0.2,0,0.4,0,0.6
	c0,17.2,9.2,32.6,23.4,41c-1.2-0.1-2.4-0.3-3.6-0.5c-1.2-0.2-2.5,0.2-3.4,1.1c-0.8,0.9-1.1,2.3-0.7,3.5c5.2,16.3,18.7,28.3,35,32
	c-13.5,8.5-28.9,12.9-45.1,12.9c-3.4,0-6.8-0.2-10.1-0.6c-1.7-0.2-3.2,0.8-3.8,2.4c-0.6,1.6,0,3.3,1.4,4.2
	c20.8,13.3,44.9,20.4,69.6,20.4c48.6,0,79-22.9,95.9-42.1c21.1-24,33.2-55.7,33.2-87c0-1.3,0-2.6-0.1-3.9
	c8.3-6.3,15.5-13.9,21.3-22.6c0.9-1.3,0.8-3.1-0.2-4.3C339.8,160.3,338.1,159.9,336.6,160.5z"/>
</svg>
