<?xml version="1.0" encoding="utf-8"?>
<!-- Generator: Adobe Illustrator 26.3.1, SVG Export Plug-In . SVG Version: 6.00 Build 0)  -->
<svg version="1.1" id="Layer_1" xmlns="http://www.w3.org/2000/svg" xmlns:xlink="http://www.w3.org/1999/xlink" x="0px" y="0px"
	 viewBox="0 0 461 461" style="enable-background:new 0 0 461 461;" xml:space="preserve">
<style type="text/css">
	.st0{fill:#C8A96A;}
</style>
<g>
	<path class="st0" d="M401.8,77.7H59.2C42,77.7,28,91.7,28,108.9v241.3c0,17.2,14,31.2,31.2,31.2h342.6c17.2,0,31.2-14,31.2-31.2
		V108.9C433,91.7,419,77.7,401.8,77.7z M397.3,100.7L232.6,241.5L68,100.7H397.3z M409.9,350.1c0,4.4-3.7,8.1-8.1,8.1H59.2
		c-4.4,0-8.1-3.7-8.1-8.1V116.6l174,148.8c0.1,0.1,0.3,0.2,0.3,0.3c0.1,0.1,0.3,0.2,0.3,0.3c0.3,0.2,0.4,0.3,0.7,0.4
		c0.1,0.1,0.2,0.1,0.3,0.2c0.3,0.2,0.7,0.3,1,0.5c0.1,0,0.2,0.1,0.3,0.1c0.3,0.1,0.5,0.3,0.9,0.3c0.1,0,0.3,0.1,0.3,0.1
		c0.3,0.1,0.5,0.2,0.8,0.2c0.1,0,0.3,0.1,0.3,0.1c0.3,0.1,0.6,0.1,0.9,0.2c0.1,0,0.2,0,0.3,0c0.3,0,0.8,0.1,1.1,0.1l0,0l0,0
		c0.3,0,0.8,0,1.1-0.1c0.1,0,0.2,0,0.3,0c0.3,0,0.6-0.1,0.9-0.2c0.1,0,0.3-0.1,0.3-0.1c0.3-0.1,0.5-0.2,0.8-0.2
		c0.1,0,0.3-0.1,0.3-0.1c0.3-0.1,0.5-0.2,0.9-0.3c0.1,0,0.2-0.1,0.3-0.1c0.3-0.2,0.7-0.3,1-0.5c0.1-0.1,0.2-0.1,0.3-0.2
		c0.3-0.2,0.4-0.3,0.7-0.4c0.1-0.1,0.3-0.2,0.3-0.3c0.1-0.1,0.3-0.2,0.3-0.3l169.9-145.2V350.1z"/>
</g>
</svg>
