<?xml version="1.0" encoding="utf-8"?>
<!-- Generator: Adobe Illustrator 26.3.1, SVG Export Plug-In . SVG Version: 6.00 Build 0)  -->
<svg version="1.1" id="Layer_1" xmlns="http://www.w3.org/2000/svg" xmlns:xlink="http://www.w3.org/1999/xlink" x="0px" y="0px"
	 viewBox="0 0 461 461" style="enable-background:new 0 0 461 461;" xml:space="preserve">
<style type="text/css">
	.st0{fill:#C8A96A;}
</style>
<g transform="translate(0 -540.36)">
	<g>
		<g>
			<circle class="st0" cx="175.4" cy="741.6" r="8.1"/>
			<circle class="st0" cx="72.4" cy="806.1" r="8.1"/>
			<circle class="st0" cx="167.5" cy="885" r="8.1"/>
			<circle class="st0" cx="293.1" cy="821.7" r="8.1"/>
			<circle class="st0" cx="333.5" cy="710.5" r="8.1"/>
			<circle class="st0" cx="387.6" cy="702.4" r="8.1"/>
			<circle class="st0" cx="214.7" cy="662.2" r="8.1"/>
			<path class="st0" d="M230,899.8c12.4,0,22.4-10.1,22.4-22.4c0-12.4-10-22.4-22.4-22.4s-22.4,10-22.4,22.4S217.6,899.8,230,899.8z
				 M230,869.3c4.5,0,8.1,3.6,8.1,8.1c0,4.5-3.6,8.1-8.1,8.1c-4.5,0-8.1-3.6-8.1-8.1C221.9,872.9,225.5,869.3,230,869.3z"/>
			<path class="st0" d="M128.4,807.1c-17.1,0-31,13.9-31,31c0,17.1,13.9,31,31,31s31-13.8,31-31C159.4,821,145.5,807.1,128.4,807.1z
				 M128.4,854.8c-9.2,0-16.7-7.5-16.7-16.7c0-9.2,7.5-16.7,16.7-16.7c9.2,0,16.7,7.5,16.7,16.7
				C145.1,847.2,137.5,854.8,128.4,854.8z"/>
			<path class="st0" d="M155.4,718.1c15,0,27.2-12.2,27.2-27.2c0-15-12.2-27.2-27.2-27.2s-27.2,12.2-27.2,27.2
				C128.2,705.8,140.4,718.1,155.4,718.1z M155.4,678c7.1,0,12.9,5.8,12.9,12.9c0,7.1-5.8,12.9-12.9,12.9c-7.1,0-12.9-5.8-12.9-12.9
				C142.5,683.8,148.3,678,155.4,678z"/>
			<path class="st0" d="M118.4,749.4c0-12.4-10-22.4-22.4-22.4s-22.4,10-22.4,22.4s10,22.4,22.4,22.4S118.4,761.9,118.4,749.4z
				 M96,757.6c-4.5,0-8.1-3.6-8.1-8.1s3.6-8.1,8.1-8.1s8.1,3.6,8.1,8.1S100.5,757.6,96,757.6z"/>
			<path class="st0" d="M377,761c-1.4-1.2-3.3-1.8-5.2-1.6l-164.9,14.1l103.5-130.4c2.5-3.1,1.9-7.6-1.1-10
				c-34-27-76.5-41.7-119.9-41.1c-43.3,0.5-85.6,15.9-119.1,43.7C36.9,664,13.8,703,5.5,745.6c-8.4,42.8-1.5,87.6,19.2,125.9
				c20.3,38.5,53.5,69.1,93.5,86.2c23.3,9.9,48.1,14.9,72.8,14.9c17.9,0,35.9-2.7,53.1-7.9c41.8-12.6,78.3-39.3,102.9-75.1
				c24.5-36.1,36.2-79.9,32.5-123.7C379.3,764,378.5,762.2,377,761z M185.3,777.7c-1.7,2.1-1.9,5.2-0.6,7.7c1.3,2.5,4.1,4,6.9,3.7
				l142-12.1c3.1,66-38.1,124.8-101.9,144c-66.3,18.4-134.5-10.6-165.9-70.5l-0.1-0.1c-32.4-58.6-19.1-133.3,31.6-177.6
				c51.5-44,123.9-46.9,177.2-7.4L185.3,777.7z M239.9,950.9c-78.4,24-163.6-12.2-202.6-86.3C-2,792.1,15.8,700.3,79.5,646.4
				c32.3-26.7,72.1-40.2,112-40.2c36.4,0,72.7,11.2,103.2,33.5l-11.3,14.2c-27.9-20.8-62.3-31.7-97.2-30.5
				c-35.8,1.1-70.6,14.7-98.3,38.4c-27.1,23.7-45.5,56.2-51.8,91.5c-6.4,35.5-0.3,72.3,17.1,103.7c16.8,32,44.2,57.2,77.3,71.2
				c19.5,8.2,40.5,12.4,61.6,12.4c14.6,0,29.2-2,43.5-5.9c0.1,0,0.1,0,0.1,0c34.3-10.3,64.5-32.3,84.7-61.8
				c19.5-28.3,29.1-62.7,27.4-97.1l17.8-1.5C369.1,855.2,318.2,927.2,239.9,950.9z"/>
			<path class="st0" d="M459,725.1c-4.9-51-30.4-98.9-70.1-131.6c-1.5-1.2-3.4-1.8-5.3-1.6c-1.9,0.2-3.6,1.1-4.9,2.7L264.8,738.1
				c-1.8,2.3-2,5.3-0.7,7.8c1.2,2.3,3.7,3.7,6.3,3.7c0.2,0,0.5,0,0.7,0l181.4-16.7c1.9-0.2,3.6-1,4.9-2.6
				C458.5,728.9,459.2,727,459,725.1z M349.3,662.1c4.5,0,8.1,3.6,8.1,8.1c0,4.5-3.6,8.1-8.1,8.1c-4.5,0-8.1-3.6-8.1-8.1
				C341.1,665.8,344.8,662.1,349.3,662.1z M286.6,733.9l42.6-53.8c3.6,7.4,11.3,12.6,20.1,12.6c12.4,0,22.4-10,22.4-22.4
				c0-10.7-7.4-19.6-17.4-21.8l11-13.7c25.5,22.8,41.5,53,46.8,87.7L286.6,733.9z M426.3,721c-5.6-38.7-23.6-72.2-52.1-97.6l11.1-14
				c31.9,28.4,52.9,67.8,58.6,110L426.3,721z"/>
		</g>
	</g>
</g>
</svg>
