<?xml version="1.0" encoding="utf-8"?>
<!-- Generator: Adobe Illustrator 26.3.1, SVG Export Plug-In . SVG Version: 6.00 Build 0)  -->
<svg version="1.1" id="Layer_1" xmlns="http://www.w3.org/2000/svg" xmlns:xlink="http://www.w3.org/1999/xlink" x="0px" y="0px"
	 viewBox="0 0 461 461" style="enable-background:new 0 0 461 461;" xml:space="preserve">
<style type="text/css">
	.st0{fill:#FFFFFF;}
</style>
<path class="st0" d="M392,225.1c0-0.1,0-0.1,0-0.2c0-0.3,0-0.7-0.1-1c0-0.2-0.1-0.4-0.1-0.5c0-0.2-0.1-0.5-0.1-0.7
	c0-0.1-0.1-0.3-0.1-0.4c-0.1-0.3-0.1-0.6-0.2-0.8c0-0.1,0-0.1-0.1-0.2c-0.6-1.9-1.6-3.6-3.1-5.1L261.2,88.9c-5-5-13.2-5-18.3,0
	c-5,5-5,13.2,0,18.3l105,105H67.6c-7.1,0-12.9,5.8-12.9,12.9v0c0,7.1,5.8,12.9,12.9,12.9h280.9L242.9,343.6c-5,5-5,13.2,0,18.3
	c5,5,13.2,5,18.3,0l127.1-127.1c2.6-2.6,3.8-6,3.8-9.4C392,225.3,392,225.2,392,225.1C392,225.1,392,225.1,392,225.1L392,225.1z"/>
</svg>
