<?xml version="1.0" encoding="utf-8"?>
<!-- Generator: Adobe Illustrator 26.3.1, SVG Export Plug-In . SVG Version: 6.00 Build 0)  -->
<svg version="1.1" id="Layer_1" xmlns="http://www.w3.org/2000/svg" xmlns:xlink="http://www.w3.org/1999/xlink" x="0px" y="0px"
	 viewBox="0 0 461 461" style="enable-background:new 0 0 461 461;" xml:space="preserve">
<style type="text/css">
	.st0{fill:#C8A96A;}
</style>
<g>
	<g>
		<path class="st0" d="M174.4,228.4c0,4-3.2,7.2-7.2,7.2h-26.9c-4,0-7.2-3.2-7.2-7.2v-26.9c0-4,3.2-7.2,7.2-7.2h26.9
			c4,0,7.2,3.2,7.2,7.2V228.4z M230.6,201.6c0-4-3.2-7.2-7.2-7.2h-26.9c-4,0-7.2,3.2-7.2,7.2v26.9c0,4,3.2,7.2,7.2,7.2h26.9
			c4,0,7.2-3.2,7.2-7.2V201.6z M286.7,201.6c0-4-3.2-7.2-7.2-7.2h-26.9c-4,0-7.2,3.2-7.2,7.2v26.9c0,4,3.2,7.2,7.2,7.2h26.9
			c4,0,7.2-3.2,7.2-7.2V201.6z M174.4,256.3c0-4-3.2-7.2-7.2-7.2h-26.9c-4,0-7.2,3.2-7.2,7.2v26.9c0,4,3.2,7.2,7.2,7.2h26.9
			c4,0,7.2-3.2,7.2-7.2V256.3z M230.6,256.3c0-4-3.2-7.2-7.2-7.2h-26.9c-4,0-7.2,3.2-7.2,7.2v26.9c0,4,3.2,7.2,7.2,7.2h26.9
			c4,0,7.2-3.2,7.2-7.2V256.3z M279.6,249.1h-26.9c-4,0-7.2,3.2-7.2,7.2v26.9c0,4,3.2,7.2,7.2,7.2h26.9c4,0,7.2-3.2,7.2-7.2v-26.9
			C286.7,252.3,283.6,249.1,279.6,249.1z M111,303.8H84.2c-4,0-7.2,3.2-7.2,7.2v26.9c0,4,3.2,7.2,7.2,7.2h26.9c4,0,7.2-3.2,7.2-7.2
			v-26.9C118.3,306.9,115,303.8,111,303.8z M118.3,256.3c0-4-3.2-7.2-7.2-7.2H84.2c-4,0-7.2,3.2-7.2,7.2v26.9c0,4,3.2,7.2,7.2,7.2
			h26.9c4,0,7.2-3.2,7.2-7.2V256.3z M223.4,303.8h-26.9c-4,0-7.2,3.2-7.2,7.2v26.9c0,4,3.2,7.2,7.2,7.2h26.9c4,0,7.2-3.2,7.2-7.2
			v-26.9C230.6,306.9,227.4,303.8,223.4,303.8z M167.3,303.8h-26.9c-4,0-7.2,3.2-7.2,7.2v26.9c0,4,3.2,7.2,7.2,7.2h26.9
			c4,0,7.2-3.2,7.2-7.2v-26.9C174.4,306.9,171.2,303.8,167.3,303.8z M335.7,235.7c4,0,7.2-3.2,7.2-7.2v-26.9c0-4-3.2-7.2-7.2-7.2
			h-26.9c-4,0-7.2,3.2-7.2,7.2v26.9c0,4,3.2,7.2,7.2,7.2H335.7z M59.4,403.3h204c-3.3-10.3-5.1-21.2-5.2-32.5H59.4
			c-5.3,0-9.6-4.3-9.6-9.6V169.1h319.9v89.4c11.3,0.1,22.3,1.8,32.5,5V101.8c0-23.3-18.9-42.2-42.2-42.2h-47.2v-26
			c0-8.5-6.9-15.4-15.4-15.4h-24c-8.5,0-15.4,6.9-15.4,15.4v26.1h-96.7V33.6c0-8.5-6.9-15.4-15.4-15.4h-24
			c-8.5,0-15.4,6.9-15.4,15.4v26.1H59.4c-23.3,0-42.2,18.9-42.2,42.2v259.4C17.2,384.4,36.1,403.3,59.4,403.3z M449.8,369.6
			c0,44.5-36.1,80.6-80.6,80.6s-80.6-36.1-80.6-80.6s36.1-80.6,80.6-80.6S449.8,325.1,449.8,369.6z M409.9,348.7c0-2.6-1-5-2.8-6.8
			c-3.8-3.8-9.9-3.8-13.7,0l-35,35l-13.4-13.4c-3.8-3.8-9.9-3.8-13.7,0c-1.9,1.9-2.8,4.2-2.8,6.8c0,2.6,1,5,2.8,6.8l20.3,20.3
			c3.8,3.8,9.9,3.8,13.7,0l41.8-41.8C409,353.7,409.9,351.2,409.9,348.7z"/>
	</g>
</g>
</svg>
