<?xml version="1.0" encoding="utf-8"?>
<!-- Generator: Adobe Illustrator 26.3.1, SVG Export Plug-In . SVG Version: 6.00 Build 0)  -->
<svg version="1.1" id="Layer_1" xmlns="http://www.w3.org/2000/svg" xmlns:xlink="http://www.w3.org/1999/xlink" x="0px" y="0px"
	 viewBox="0 0 461 461" style="enable-background:new 0 0 461 461;" xml:space="preserve">
<style type="text/css">
	.st0{fill:#C8A96A;stroke:#C8A96A;stroke-width:10;stroke-miterlimit:10;}
</style>
<path class="st0" d="M230.5,436c-54.9,0-106.5-21.4-145.4-60.1C46.4,337,25,285.4,25,230.5S46.4,124,85.1,85.1S175.6,25,230.5,25
	S337,46.4,375.9,85.1C414.7,124,436,175.5,436,230.5S414.6,337,375.9,375.9C337,414.6,285.4,436,230.5,436z M230.5,43.2
	c-103.3,0-187.3,84-187.3,187.3s84,187.3,187.3,187.3s187.3-84,187.3-187.3S333.8,43.2,230.5,43.2z"/>
<path class="st0" d="M230.5,221.7c-41.8,0-75.8-34-75.8-75.8s34-75.8,75.8-75.8s75.8,34,75.8,75.8S272.3,221.7,230.5,221.7z
	 M230.5,88.3c-31.7,0-57.6,25.8-57.6,57.6c0,31.7,25.8,57.6,57.6,57.6s57.6-25.8,57.6-57.6S262.2,88.3,230.5,88.3z"/>
<path class="st0" d="M413.2,287.8c-11.7-13.5-38.8-32.3-56.5-32.3H104.3c-17.7,0-44.8,18.8-56.5,32.3L34,275.9
	c13.4-15.6,45.1-38.5,70.3-38.5h252.4c25.2,0,56.8,23,70.3,38.5L413.2,287.8z"/>
</svg>
