<?xml version="1.0" encoding="utf-8"?>
<!-- Generator: Adobe Illustrator 26.3.1, SVG Export Plug-In . SVG Version: 6.00 Build 0)  -->
<svg version="1.1" id="Layer_1" xmlns="http://www.w3.org/2000/svg" xmlns:xlink="http://www.w3.org/1999/xlink" x="0px" y="0px"
	 viewBox="0 0 461 461" style="enable-background:new 0 0 461 461;" xml:space="preserve">
<style type="text/css">
	.st0{fill:#222627;}
	.st1{fill:#9A9CA5;}
</style>
<circle class="st0" cx="230.5" cy="224" r="218"/>
<g>
	<path class="st1" d="M302.8,146H163.2c-27.4,0-49.6,22.2-49.6,49.6v69.8c0,27.4,22.2,49.6,49.6,49.6h139.6
		c27.4,0,49.6-22.2,49.6-49.6v-69.8C352.4,168.2,330.2,146,302.8,146z M269.3,233.9L203.9,265c-1.7,0.8-3.8-0.4-3.8-2.4v-64.2
		c0-2,2.1-3.2,3.8-2.3l65.3,33.1C271.3,230.2,271.2,233,269.3,233.9z"/>
</g>
</svg>
