<?xml version="1.0" encoding="utf-8"?>
<!-- Generator: Adobe Illustrator 26.3.1, SVG Export Plug-In . SVG Version: 6.00 Build 0)  -->
<svg version="1.1" id="Layer_1" xmlns="http://www.w3.org/2000/svg" xmlns:xlink="http://www.w3.org/1999/xlink" x="0px" y="0px"
	 viewBox="0 0 461 461" style="enable-background:new 0 0 461 461;" xml:space="preserve">
<style type="text/css">
	.st0{fill:#C8A96A;}
</style>
<g>
	<path class="st0" d="M364.8,23.8h-234c-4.5,0-8.2-3.7-8.2-8.2c0-4-3.2-7.2-7.2-7.2s-7.2,3.2-7.2,7.2c0,12.4,10.1,22.5,22.5,22.5
		h234c40.5,0,73.4,32.9,73.4,73.4c0,36.1-26.2,66.2-60.6,72.2c18-20.2,29-46.9,29-76.1V92.4c0-12.4-10.1-22.5-22.5-22.5H176.8
		c-50.7,0-93.6,19.5-124.2,56.5C24.2,160.8,8.5,208.6,8.5,261.2c0,105.5,85.8,191.3,191.3,191.3h92.1c2.5,0,4.8-1.3,6.1-3.4
		c1.3-2.1,1.4-4.8,0.3-7l-13.9-27.8l14.1-35.4c1.1-2.7,0.4-5.8-1.6-7.8c-2.1-2-5.1-2.6-7.8-1.5l-90.7,37.8
		c-50.4-0.7-91.1-42-91.1-92.5c0-49.9,39.7-90.7,89.2-92.5l32.6,39.1c1.2,1.5,1.9,3.3,1.9,5.2v40.5c0,4,3.2,7.2,7.2,7.2
		s7.2-3.2,7.2-7.2v-40.5c0-5.3-1.9-10.4-5.2-14.4l-25-30h19.6l32.6,39.2c1.2,1.5,1.9,3.3,1.9,5.2v40.5c0,4,3.2,7.2,7.2,7.2
		s7.2-3.2,7.2-7.2v-40.5c0-5.3-1.9-10.4-5.2-14.4l-25-30h19.6l32.6,39.2c1.2,1.5,1.9,3.3,1.9,5.2v40.5c0,4,3.2,7.2,7.2,7.2
		s7.2-3.2,7.2-7.2v-40.5c0-5.3-1.9-10.4-5.2-14.4l-25-30c25.8,0,49.6-8.6,68.8-23c0.1,0,0.1,0,0.2,0h3.8c48.4,0,87.7-39.4,87.7-87.7
		S413.1,23.8,364.8,23.8z M392.1,92.4v15.3c0,55.3-45,100.2-100.2,100.2h-92.1c0,0,0,0,0,0c0,0,0,0,0,0c-5.4,0-10.6,0.4-15.8,1.2
		V84.3h199.9C388.4,84.3,392.1,87.9,392.1,92.4z M169.6,84.4v127.9c-11.7,3.4-22.5,8.8-32.2,15.8l-75.1-90.9
		c0.4-0.5,0.9-1.1,1.3-1.6C90,103.8,126.5,86.2,169.6,84.4z M102.2,358.4l-35.7,18.9c-26.7-30.6-43-70.3-43.6-113.8L96.3,288
		c-2.2,8.6-3.4,17.6-3.4,26.9C92.9,330.4,96.2,345.1,102.2,358.4z M270.1,417.8l10.1,20.3H207v-18.7l71.8-29.9l-9,22.5
		C269.1,413.9,269.2,416,270.1,417.8z M192.6,421.6V438c-44.9-1.8-85.6-20.5-115.9-49.8l32.2-17
		C126.6,399.6,157.3,419.2,192.6,421.6z M100.9,274.3l-77.7-25.9c1.9-37.6,12.5-71.9,30.4-99.2l72.7,88.1
		C115.4,247.6,106.7,260.2,100.9,274.3z"/>
	<path class="st0" d="M299.5,145.6c12.4,0,22.5-10.1,22.5-22.5s-10.1-22.5-22.5-22.5c-12.4,0-22.5,10.1-22.5,22.5
		S287.1,145.6,299.5,145.6z M299.5,114.9c4.5,0,8.2,3.7,8.2,8.2c0,4.5-3.7,8.2-8.2,8.2c-4.5,0-8.2-3.7-8.2-8.2
		C291.4,118.6,295.1,114.9,299.5,114.9z"/>
</g>
</svg>
