<?xml version="1.0" encoding="utf-8"?>
<!-- Generator: Adobe Illustrator 26.3.1, SVG Export Plug-In . SVG Version: 6.00 Build 0)  -->
<svg version="1.1" id="Layer_1" xmlns="http://www.w3.org/2000/svg" xmlns:xlink="http://www.w3.org/1999/xlink" x="0px" y="0px"
	 viewBox="0 0 461 461" style="enable-background:new 0 0 461 461;" xml:space="preserve">
<style type="text/css">
	.st0{fill:#FFFFFF;}
</style>
<g id="XMLID_240_">
	<path id="XMLID_241_" class="st0" d="M170.5,185.5h120c8.3,0,15-6.7,15-15s-6.7-15-15-15h-120c-8.3,0-15,6.7-15,15
		S162.2,185.5,170.5,185.5z"/>
	<path id="XMLID_242_" class="st0" d="M290.5,215.5h-120c-8.3,0-15,6.7-15,15s6.7,15,15,15h120c8.3,0,15-6.7,15-15
		S298.8,215.5,290.5,215.5z"/>
	<path id="XMLID_243_" class="st0" d="M290.5,275.5h-120c-8.3,0-15,6.7-15,15s6.7,15,15,15h120c8.3,0,15-6.7,15-15
		S298.8,275.5,290.5,275.5z"/>
</g>
</svg>
