<?xml version="1.0" encoding="utf-8"?>
<!-- Generator: Adobe Illustrator 26.3.1, SVG Export Plug-In . SVG Version: 6.00 Build 0)  -->
<svg version="1.1" id="Layer_1" xmlns="http://www.w3.org/2000/svg" xmlns:xlink="http://www.w3.org/1999/xlink" x="0px" y="0px"
	 viewBox="0 0 461 461" style="enable-background:new 0 0 461 461;" xml:space="preserve">
<style type="text/css">
	.st0{fill:#C8A96A;}
</style>
<g>
	<path class="st0" d="M432.9,207.4c-5.7-5.7-13.3-8.8-21.3-8.8h-13.2v-13.2c0-8.1-3.1-15.6-8.8-21.3c-5.7-5.7-13.3-8.8-21.3-8.8
		s-15.6,3.1-21.3,8.8c-5.7,5.7-8.8,13.3-8.8,21.3V210l-37.8,37.8l-85.5,19.7c-17.4,4-33.4,12.9-46.1,25.6
		c-18.1,18.1-28,42.1-28,67.6c0,25.5,9.9,49.6,28,67.6c18.1,18.1,42.1,28,67.6,28s49.6-9.9,67.6-28c12.7-12.7,21.5-28.6,25.6-46.1
		l19.7-85.5l37.8-37.8h24.6c8.1,0,15.6-3.1,21.3-8.8c5.7-5.7,8.8-13.3,8.8-21.3S438.6,213.1,432.9,207.4z M311.4,378
		c-3.2,14-10.3,26.8-20.6,37.1c-14.5,14.5-33.9,22.6-54.4,22.6s-39.9-8-54.4-22.6c-14.5-14.5-22.6-33.9-22.6-54.4
		c0-20.6,8-39.9,22.6-54.4c10.2-10.2,23-17.3,37.1-20.6l83.1-19.2l28.5,28.5L311.4,378z M419.7,236.9c-2.2,2.2-5.1,3.4-8.2,3.4
		c0,0-32.3,0-32.3,0l-38.5,38.5l-22.6-22.6l38.5-38.5v-32.3c0-3.1,1.2-6,3.4-8.2s5.1-3.4,8.2-3.4c3.1,0,6,1.2,8.2,3.4
		s3.4,5.1,3.4,8.2v31.8h31.8c3.1,0,6,1.2,8.2,3.4c2.2,2.2,3.4,5.1,3.4,8.2C423.1,231.8,421.9,234.7,419.7,236.9z"/>
	<path class="st0" d="M212.8,395.5l-13.2-13.2l17.6-17.6l13.2,13.2L212.8,395.5z M212.8,345.8l-13.2-13.2l17.6-17.6l13.2,13.2
		L212.8,345.8z"/>
</g>
<g>
	<path class="st0" d="M13.7,260.8c5.7,5.7,13.3,8.8,21.3,8.8h13.2v13.2c0,8.1,3.1,15.6,8.8,21.3c5.7,5.7,13.3,8.8,21.3,8.8
		s15.6-3.1,21.3-8.8c5.7-5.7,8.8-13.3,8.8-21.3v-24.6l37.8-37.8l85.5-19.7c17.4-4,33.4-12.9,46.1-25.6c18.1-18.1,28-42.1,28-67.6
		s-9.9-49.6-28-67.6c-18.1-18.1-42.1-28-67.6-28s-49.6,9.9-67.6,28C129.9,52.7,121.1,68.6,117,86l-19.7,85.5l-37.8,37.8H35
		c-8.1,0-15.6,3.1-21.3,8.8c-5.7,5.7-8.8,13.3-8.8,21.3S8,255.1,13.7,260.8z M135.2,90.2c3.2-14,10.3-26.8,20.6-37.1
		c14.5-14.5,33.9-22.6,54.4-22.6s39.9,8,54.4,22.6c14.5,14.5,22.6,33.9,22.6,54.4s-8,39.9-22.6,54.4c-10.2,10.2-23,17.3-37.1,20.6
		l-83.1,19.2L116,173.3L135.2,90.2z M26.8,231.3c2.2-2.2,5.1-3.4,8.2-3.4c0,0,32.3,0,32.3,0l38.5-38.5l22.6,22.6l-38.5,38.5v32.3
		c0,3.1-1.2,6-3.4,8.2s-5.1,3.4-8.2,3.4c-3.1,0-6-1.2-8.2-3.4c-2.2-2.2-3.4-5.1-3.4-8.2V251H35c-3.1,0-6-1.2-8.2-3.4
		c-2.2-2.2-3.4-5.1-3.4-8.2C23.4,236.4,24.6,233.5,26.8,231.3z"/>
	<path class="st0" d="M233.8,72.8l13.2,13.2l-17.6,17.6l-13.2-13.2L233.8,72.8z M233.8,122.4l13.2,13.2l-17.6,17.6L216.2,140
		L233.8,122.4z"/>
</g>
</svg>
