<?xml version="1.0" encoding="utf-8"?>
<!-- Generator: Adobe Illustrator 26.3.1, SVG Export Plug-In . SVG Version: 6.00 Build 0)  -->
<svg version="1.1" id="Layer_1" xmlns="http://www.w3.org/2000/svg" xmlns:xlink="http://www.w3.org/1999/xlink" x="0px" y="0px"
	 viewBox="0 0 461 461" style="enable-background:new 0 0 461 461;" xml:space="preserve">
<style type="text/css">
	.st0{fill:#C8A96A;}
</style>
<g>
	<g>
		<path class="st0" d="M404.9,283.4v-23.1c21.1-3.5,37.3-21.8,37.3-43.9s-16.2-40.5-37.3-43.9v-22.9c11.6-2,20.4-12.1,20.4-24.3
			c0-63.9-52-116-116-116H160.9c-63.9,0-116,52-116,116c0,12.2,8.8,22.3,20.4,24.3v22.9C44.2,175.9,28,194.3,28,216.4
			s16.2,40.5,37.3,43.9v23.1C44.2,286.8,28,305.2,28,327.3c0,16.2,8.7,30.4,21.7,38.2c-3,4.1-4.8,9.1-4.8,14.6v20.1
			c0,28.4,23.1,51.5,51.5,51.5h277.5c28.4,0,51.5-23.1,51.5-51.5v-20.1c0-5.5-1.8-10.5-4.8-14.6c13-7.8,21.7-22,21.7-38.2
			C442.2,305.2,426.1,286.8,404.9,283.4z M61.3,125.3c0-54.9,44.7-99.6,99.6-99.6h148.5c54.9,0,99.6,44.7,99.6,99.6
			c0,4.6-3.7,8.3-8.3,8.3h-4H73.5h-4C65,133.6,61.3,129.9,61.3,125.3z M81.7,171.9V150h306.8v21.9H81.7z M197.3,188.3l-24.4,24.4
			l-24.4-24.4H197.3L197.3,188.3z M44.4,216.4c0-15.5,12.6-28.1,28.1-28.1h1h51.8l41.8,41.8c1.6,1.6,3.7,2.4,5.8,2.4
			s4.2-0.8,5.8-2.4l41.8-41.8h176.2h1c15.5,0,28.1,12.6,28.1,28.1s-12.6,28.1-28.1,28.1h-1H73.5h-1C57,244.5,44.4,231.9,44.4,216.4z
			 M81.7,282.8v-21.9h306.8v21.9H81.7z M339.1,299.2l-24.4,24.4l-24.4-24.4H339.1z M409,400.2c0,19.3-15.7,35.1-35.1,35.1H96.4
			c-19.3,0-35.1-15.7-35.1-35.1v-20.1c0-4.6,3.7-8.3,8.3-8.3h3h325.2h3c4.6,0,8.3,3.7,8.3,8.3L409,400.2L409,400.2z M397.7,355.4
			H72.5c-15.5,0-28.1-12.6-28.1-28.1s12.6-28.1,28.1-28.1h1h193.6l41.8,41.8c1.5,1.5,3.6,2.4,5.8,2.4c2.2,0,4.3-0.9,5.8-2.4
			l41.8-41.8h34.4h1c15.5,0,28.1,12.6,28.1,28.1C425.8,342.8,413.2,355.4,397.7,355.4z"/>
	</g>
</g>
<g>
	<g>
		<circle class="st0" cx="154.7" cy="51" r="8.2"/>
	</g>
</g>
<g>
	<g>
		<circle class="st0" cx="315.5" cy="51" r="8.2"/>
	</g>
</g>
<g>
	<g>
		<circle class="st0" cx="208.3" cy="51" r="8.2"/>
	</g>
</g>
<g>
	<g>
		<ellipse transform="matrix(0.2298 -0.9732 0.9732 0.2298 152.092 294.1765)" class="st0" cx="261.9" cy="51" rx="8.2" ry="8.2"/>
	</g>
</g>
</svg>
