<?xml version="1.0" encoding="utf-8"?>
<!-- Generator: Adobe Illustrator 26.3.1, SVG Export Plug-In . SVG Version: 6.00 Build 0)  -->
<svg version="1.1" id="Layer_1" xmlns="http://www.w3.org/2000/svg" xmlns:xlink="http://www.w3.org/1999/xlink" x="0px" y="0px"
	 viewBox="0 0 461 461" style="enable-background:new 0 0 461 461;" xml:space="preserve">
<style type="text/css">
	.st0{fill:#222627;}
	.st1{fill-rule:evenodd;clip-rule:evenodd;fill:#9A9CA5;}
</style>
<circle class="st0" cx="230.5" cy="224" r="218"/>
<g>
	<path class="st1" d="M238.8,220.3V220c-0.1,0.1-0.1,0.2-0.2,0.3H238.8z"/>
	<path class="st1" d="M130,130v201h201V130H130z M192.5,297h-29.8v-89.7h29.8V297z M177.6,195h-0.2c-10,0-16.5-6.9-16.5-15.5
		c0-8.8,6.7-15.5,16.9-15.5c10.2,0,16.5,6.7,16.7,15.5C194.5,188.1,188,195,177.6,195z M300.1,297h-29.8v-48
		c0-12.1-4.3-20.3-15.1-20.3c-8.2,0-13.1,5.5-15.3,10.9c-0.8,1.9-1,4.6-1,7.3V297H209c0,0,0.4-81.3,0-89.7h29.8V220
		c4-6.1,11-14.8,26.9-14.8c19.6,0,34.3,12.8,34.3,40.4V297z"/>
</g>
</svg>
